<svg width="100" height="101" viewBox="0 0 100 101" fill="none" xmlns="http://www.w3.org/2000/svg">
<path d="M27.4412 24.1915C25.0147 24.1915 22.9375 23.3275 21.2096 21.5996C19.4816 19.8716 18.6176 17.7944 18.6176 15.368C18.6176 12.9415 19.4816 10.8643 21.2096 9.13635C22.9375 7.4084 25.0147 6.54443 27.4412 6.54443C29.8676 6.54443 31.9449 7.4084 33.6728 9.13635C35.4007 10.8643 36.2647 12.9415 36.2647 15.368C36.2647 17.7944 35.4007 19.8716 33.6728 21.5996C31.9449 23.3275 29.8676 24.1915 27.4412 24.1915ZM73.7647 46.2503C71.9265 46.2503 70.364 45.6069 69.0772 44.3202C67.7904 43.0334 67.1471 41.4709 67.1471 39.6327C67.1471 37.7944 67.7904 36.2319 69.0772 34.9452C70.364 33.6584 71.9265 33.015 73.7647 33.015C75.6029 33.015 77.1654 33.6584 78.4522 34.9452C79.739 36.2319 80.3824 37.7944 80.3824 39.6327C80.3824 41.4709 79.739 43.0334 78.4522 44.3202C77.1654 45.6069 75.6029 46.2503 73.7647 46.2503ZM18.6176 94.7797V63.8974H12V37.4268C12 35.0003 12.864 32.9231 14.5919 31.1952C16.3199 29.4672 18.3971 28.6033 20.8235 28.6033H34.0588C35.6765 28.6033 37.1471 28.9893 38.4706 29.7613C39.7941 30.5334 40.8603 31.618 41.6691 33.015L57.4412 60.2577L61.9632 53.5297C62.5515 52.6474 63.3419 51.9488 64.3346 51.4341C65.3272 50.9194 66.375 50.6621 67.4779 50.6621H80.3824C82.2206 50.6621 83.7831 51.3055 85.0699 52.5922C86.3566 53.879 87 55.4415 87 57.2797V72.7209H82.5882V94.7797H64.9412V63.4562L61.5221 68.3091H51.8162L40.6765 48.8974V94.7797H18.6176Z" fill="#E8EAED"/>
</svg>
