<svg width="120" height="60" viewBox="0 0 120 60" fill="none" xmlns="http://www.w3.org/2000/svg">
<path d="M49.875 30C47.9308 30 46.3338 29.2785 45.0838 27.8354C43.8338 26.3932 43.3892 24.7464 43.75 22.895L45.5 12.605C46.1667 9.09331 47.8542 6.21456 50.5625 3.96873C53.2708 1.72289 56.4167 0.599976 60 0.599976C63.6667 0.599976 66.8542 1.72289 69.5625 3.96873C72.2708 6.21456 73.9583 9.09331 74.625 12.605L76.375 22.895C76.7358 24.7464 76.2913 26.3932 75.0413 27.8354C73.7913 29.2785 72.1942 30 70.25 30H49.875ZM52.375 21.8329H67.75L66.4163 13.9525C66.1388 12.4278 65.4029 11.1823 64.2087 10.2162C63.0137 9.25011 61.6246 8.76705 60.0412 8.76705C58.4579 8.76705 57.0763 9.25011 55.8963 10.2162C54.7154 11.1823 53.9863 12.4278 53.7088 13.9525L52.375 21.8329ZM16.75 37.399C15 37.4749 13.4833 37.1372 12.2 36.3859C10.9167 35.6346 10.0804 34.47 9.69125 32.8922C9.53625 32.216 9.51417 31.5378 9.625 30.8575C9.73583 30.1772 9.93042 29.5284 10.2087 28.911C10.2087 28.9885 10.1671 28.8342 10.0837 28.4479C10.0279 28.3393 9.64458 27.4393 8.93375 25.748C8.75542 24.826 8.84708 23.984 9.20875 23.222C9.56958 22.4593 10.0833 21.7512 10.75 21.0979L11 20.8529C11.1667 19.4107 11.7646 18.213 12.7937 17.26C13.8229 16.3069 15.1 15.8304 16.625 15.8304C16.7642 15.8304 17.4771 15.9668 18.7638 16.2395L19.125 16.1171C19.5417 15.7626 20.0462 15.4833 20.6388 15.2792C21.2313 15.075 21.8608 14.9729 22.5275 14.9729C23.3425 14.9729 24.0904 15.1158 24.7712 15.4017C25.4513 15.6875 25.9804 16.0926 26.3587 16.6169C26.4346 16.6169 26.4912 16.6356 26.5287 16.6732C26.5662 16.7108 26.6229 16.7295 26.6987 16.7295C27.7571 16.8039 28.6829 17.122 29.4762 17.6838C30.2696 18.2449 30.8746 19.0109 31.2913 19.9819C31.4579 20.5046 31.5204 21.0089 31.4788 21.4948C31.4371 21.9799 31.3329 22.4466 31.1663 22.895C31.1663 23.0314 31.2079 23.1673 31.2913 23.3029C31.8229 23.8288 32.2408 24.4107 32.545 25.0485C32.8483 25.6863 33 26.3434 33 27.0196C33 27.2368 32.7779 28.0175 32.3338 29.3618C32.2504 29.5202 32.2504 29.6786 32.3338 29.8371C32.3888 30.0543 32.4442 30.6529 32.5 31.6329C32.5 33.1846 31.8342 34.5337 30.5025 35.6803C29.1708 36.8261 27.5542 37.399 25.6525 37.399H16.75ZM100.659 37.35C98.1363 37.35 95.9792 36.4668 94.1875 34.7003C92.3958 32.9347 91.5 30.8117 91.5 28.3315C91.5 27.4291 91.6458 26.5765 91.9375 25.7737C92.2292 24.9709 92.5971 24.2155 93.0413 23.5075L89.7913 20.69C89.0696 20.0366 88.9379 19.2743 89.3962 18.4029C89.8546 17.5323 90.5429 17.097 91.4613 17.097H100.647C103.173 17.097 105.336 17.9795 107.135 19.7443C108.934 21.5099 109.834 23.632 109.834 26.1106V28.3646C109.834 30.8432 108.935 32.9604 107.139 34.7162C105.342 36.4721 103.182 37.35 100.659 37.35ZM0 59.4V52.4996C0 49.1529 1.78458 46.4717 5.35375 44.4562C8.92375 42.4407 13.5392 41.4329 19.2 41.4329C20.2367 41.4329 21.2333 41.4533 22.19 41.4942C23.1467 41.535 24.0833 41.6297 25 41.7784C24.1667 43.2631 23.5417 44.7968 23.125 46.3795C22.7083 47.9622 22.5 49.6482 22.5 51.4375V59.4H0ZM30 59.4V51.4375C30 46.1291 32.7708 41.8416 38.3125 38.575C43.8542 35.3083 51.0833 33.675 60 33.675C69 33.675 76.25 35.3083 81.75 38.575C87.25 41.8416 90 46.1291 90 51.4375V59.4H30ZM100.834 41.4329C106.584 41.4329 111.215 42.4407 114.729 44.4562C118.243 46.4717 120 49.1529 120 52.4996V59.4H97.5V51.4375C97.5 49.6482 97.3125 47.9622 96.9375 46.3795C96.5625 44.7968 95.9721 43.2631 95.1663 41.7784C96.0829 41.6297 97.0112 41.535 97.9512 41.4942C98.8921 41.4533 99.8529 41.4329 100.834 41.4329ZM59.9837 41.8421C53.9671 41.8421 48.9446 42.6996 44.9162 44.4146C40.8887 46.1296 38.7637 48.2664 38.5412 50.825V51.2329H81.5V50.7429C81.25 48.239 79.1321 46.1296 75.1462 44.4146C71.1596 42.6996 66.1054 41.8421 59.9837 41.8421Z" fill="#FAFAFA"/>
</svg>
