<svg width="100" height="101" viewBox="0 0 100 101" fill="none" xmlns="http://www.w3.org/2000/svg">
<path d="M25.6364 79.499V48.3058L16.0909 55.6353L12 50.1808L49.5 21.5444L63.1364 31.9422V24.9535H73.3636V39.7831L87 50.1808L82.9091 55.6353L73.3636 48.3058V79.499H52.9091V59.0444H46.0909V79.499H25.6364ZM32.4545 72.6808H39.2727V52.2263H59.7273V72.6808H66.5455V43.1069L49.5 30.1524L32.4545 43.1069V72.6808ZM42.6818 45.4933H56.3182C56.3182 43.6751 55.6364 42.1836 54.2727 41.0189C52.9091 39.8541 51.3182 39.2717 49.5 39.2717C47.6818 39.2717 46.0909 39.8541 44.7273 41.0189C43.3636 42.1836 42.6818 43.6751 42.6818 45.4933Z" fill="#E8EAED"/>
</svg>
