<svg width="120" height="73" viewBox="0 0 120 73" fill="none" xmlns="http://www.w3.org/2000/svg">
<path d="M81.5063 0H65.4C63.9 0 62.4563 0.5625 61.35 1.575L42.9188 18.45C42.9 18.4687 42.8813 18.5062 42.8625 18.525C39.75 21.45 39.8063 26.1187 42.4688 29.025C44.85 31.6312 49.8563 32.325 52.9875 29.5312C53.0063 29.5125 53.0438 29.5125 53.0625 29.4937L68.0437 15.7688C69.2625 14.6625 71.175 14.7375 72.2812 15.9563C73.4062 17.175 73.3125 19.0687 72.0938 20.1937L67.2 24.675L94.5 46.8375C95.0438 47.2875 95.5312 47.775 95.9813 48.2812V12L85.7438 1.7625C84.6375 0.6375 83.1 0 81.5063 0ZM102 12.0375V54.0187C102 57.3375 104.681 60.0187 108 60.0187H120V12.0375H102ZM111 54.0187C109.35 54.0187 108 52.6687 108 51.0187C108 49.3687 109.35 48.0187 111 48.0187C112.65 48.0187 114 49.3687 114 51.0187C114 52.6687 112.65 54.0187 111 54.0187ZM0 60H12C15.3188 60 18 57.3187 18 54V12.0375H0V60ZM9 48.0187C10.65 48.0187 12 49.3687 12 51.0187C12 52.6687 10.65 54.0187 9 54.0187C7.35 54.0187 6 52.6687 6 51.0187C6 49.35 7.35 48.0187 9 48.0187ZM90.7313 51.5062L62.7375 28.7812L57.1125 33.9375C51.5438 39.0187 43.0125 38.5312 38.0438 33.1125C33 27.6 33.3938 19.0687 38.8688 14.0437L54.2063 0H38.4938C36.9 0 35.3812 0.6375 34.2562 1.7625L24 12V53.9812H27.4313L44.4 69.3375C49.5375 73.5187 57.0938 72.7312 61.275 67.5937L61.3125 67.5562L64.6687 70.4625C67.65 72.9 72.0563 72.4312 74.475 69.45L80.3625 62.2125L81.375 63.0375C83.9438 65.1188 87.7313 64.7437 89.8125 62.1562L91.5938 59.9625C93.6938 57.375 93.3 53.6063 90.7313 51.5062Z" fill="#FAFAFA"/>
</svg>
