<svg width="100" height="101" viewBox="0 0 100 101" fill="none" xmlns="http://www.w3.org/2000/svg">
<path d="M70.5366 27.8741C68.5244 27.8741 66.8018 27.1577 65.3689 25.7247C63.936 24.2918 63.2195 22.5693 63.2195 20.5571C63.2195 18.5449 63.936 16.8223 65.3689 15.3894C66.8018 13.9565 68.5244 13.24 70.5366 13.24C72.5488 13.24 74.2713 13.9565 75.7043 15.3894C77.1372 16.8223 77.8537 18.5449 77.8537 20.5571C77.8537 22.5693 77.1372 24.2918 75.7043 25.7247C74.2713 27.1577 72.5488 27.8741 70.5366 27.8741ZM66.8781 86.4107V57.1424C66.8781 54.7034 66.2531 52.5083 65.0031 50.5571C63.7531 48.6058 62.1524 47.0815 60.2012 45.9839L63.4024 36.5632C63.8902 35.0388 64.7896 33.8193 66.1006 32.9046C67.4116 31.99 68.8902 31.5327 70.5366 31.5327C72.1829 31.5327 73.6616 31.99 74.9726 32.9046C76.2835 33.8193 77.1829 35.0388 77.6707 36.5632L87 64.4595H77.8537V86.4107H66.8781ZM50.4146 47.9961C48.8902 47.9961 47.5945 47.4626 46.5274 46.3955C45.4604 45.3284 44.9268 44.0327 44.9268 42.5083C44.9268 40.9839 45.4604 39.6882 46.5274 38.6211C47.5945 37.554 48.8902 37.0205 50.4146 37.0205C51.939 37.0205 53.2348 37.554 54.3018 38.6211C55.3689 39.6882 55.9024 40.9839 55.9024 42.5083C55.9024 44.0327 55.3689 45.3284 54.3018 46.3955C53.2348 47.4626 51.939 47.9961 50.4146 47.9961ZM24.8049 27.8741C22.7927 27.8741 21.0701 27.1577 19.6372 25.7247C18.2043 24.2918 17.4878 22.5693 17.4878 20.5571C17.4878 18.5449 18.2043 16.8223 19.6372 15.3894C21.0701 13.9565 22.7927 13.24 24.8049 13.24C26.8171 13.24 28.5396 13.9565 29.9726 15.3894C31.4055 16.8223 32.122 18.5449 32.122 20.5571C32.122 22.5693 31.4055 24.2918 29.9726 25.7247C28.5396 27.1577 26.8171 27.8741 24.8049 27.8741ZM17.4878 86.4107V60.801H12V38.8497C12 36.8376 12.7165 35.115 14.1494 33.6821C15.5823 32.2491 17.3049 31.5327 19.3171 31.5327H30.2927C32.3049 31.5327 34.0274 32.2491 35.4604 33.6821C36.8933 35.115 37.6098 36.8376 37.6098 38.8497V60.801H32.122V86.4107H17.4878ZM44.9268 86.4107V71.7766H41.2683V57.1424C41.2683 55.618 41.8018 54.3223 42.8689 53.2552C43.936 52.1882 45.2317 51.6546 46.7561 51.6546H54.0732C55.5976 51.6546 56.8933 52.1882 57.9604 53.2552C59.0274 54.3223 59.561 55.618 59.561 57.1424V71.7766H55.9024V86.4107H44.9268Z" fill="#FAFAFA"/>
</svg>
