<svg width="84" height="80" viewBox="0 0 84 80" fill="none" xmlns="http://www.w3.org/2000/svg">
<path d="M0.5 79.1667V72.2219H38.6948V23.0906C36.8892 22.4656 35.292 21.4587 33.9031 20.0698C32.5142 18.6809 31.5073 17.0837 30.8823 15.2781H15.4302L28.2781 45.9719C28.2316 49.2128 26.8656 51.9677 24.1802 54.2365C21.4955 56.5045 18.2316 57.6385 14.3885 57.6385C10.5462 57.6385 7.28229 56.5045 4.59688 54.2365C1.91215 51.9677 0.546528 49.2128 0.5 45.9719L13.3469 15.2781H4.66667V8.33333H30.8823C31.7156 5.90278 33.1622 3.90625 35.2219 2.34375C37.2823 0.78125 39.5972 0 42.1667 0C44.7361 0 47.051 0.78125 49.1115 2.34375C51.1712 3.90625 52.6177 5.90278 53.451 8.33333H79.6667V15.2781H70.9865L83.8333 45.9719C83.7868 49.2128 82.4212 51.9677 79.7365 54.2365C77.051 56.5045 73.7872 57.6385 69.9448 57.6385C66.1017 57.6385 62.8379 56.5045 60.1531 54.2365C57.4677 51.9677 56.1017 49.2128 56.0552 45.9719L68.9031 15.2781H53.451C52.826 17.0837 51.8191 18.6809 50.4302 20.0698C49.0413 21.4587 47.4441 22.4656 45.6385 23.0906V72.2219H83.8333V79.1667H0.5ZM62.1323 45.8333H77.7573L69.9448 27.0135L62.1323 45.8333ZM6.57604 45.8333H22.201L14.3885 27.0135L6.57604 45.8333ZM42.1667 16.6667C43.5326 16.6667 44.6844 16.1865 45.6219 15.226C46.5594 14.2649 47.0281 13.1247 47.0281 11.8052C47.0281 10.4399 46.5594 9.28854 45.6219 8.35104C44.6844 7.41354 43.5326 6.94479 42.1667 6.94479C40.8472 6.94479 39.7073 7.41354 38.7469 8.35104C37.7858 9.28854 37.3052 10.4399 37.3052 11.8052C37.3052 13.1247 37.7858 14.2649 38.7469 15.226C39.7073 16.1865 40.8472 16.6667 42.1667 16.6667Z" fill="#FAFAFA"/>
</svg>
