<svg width="100" height="101" viewBox="0 0 100 101" fill="none" xmlns="http://www.w3.org/2000/svg">
<path d="M18.2503 85.49C16.5628 85.49 15.0991 84.8703 13.8591 83.6309C12.6197 82.3909 12 80.9272 12 79.2397V35.4903C12 33.8028 12.6197 32.3391 13.8591 31.0991C15.0991 29.8597 16.5628 29.24 18.2503 29.24H34.5V20.4903C34.5 18.8028 35.1197 17.3391 36.3591 16.0991C37.5991 14.8597 39.0628 14.24 40.7503 14.24H58.2497C59.9372 14.24 61.4009 14.8597 62.6409 16.0991C63.8803 17.3391 64.5 18.8028 64.5 20.4903V29.24H80.7497C82.4372 29.24 83.9009 29.8597 85.1409 31.0991C86.3803 32.3391 87 33.8028 87 35.4903V79.2397C87 80.9272 86.3803 82.3909 85.1409 83.6309C83.9009 84.8703 82.4372 85.49 80.7497 85.49H18.2503ZM18.2503 79.2397H80.7497V35.4903H18.2503V79.2397ZM40.7503 29.24H58.2497V20.4903H40.7503V29.24Z" fill="#FAFAFA"/>
</svg>
