<svg width="100" height="101" viewBox="0 0 100 101" fill="none" xmlns="http://www.w3.org/2000/svg">
<path d="M25.5 92.5733C22.0278 92.5733 19.0764 91.358 16.6458 88.9275C14.2153 86.4969 13 83.5455 13 80.0733V67.5733H25.5V9.23999H88V80.0733C88 83.5455 86.7847 86.4969 84.3542 88.9275C81.9236 91.358 78.9722 92.5733 75.5 92.5733H25.5ZM75.5 84.24C76.6806 84.24 77.6701 83.8407 78.4688 83.0421C79.2674 82.2435 79.6667 81.2539 79.6667 80.0733V17.5733H33.8333V67.5733H71.3333V80.0733C71.3333 81.2539 71.7326 82.2435 72.5312 83.0421C73.3299 83.8407 74.3194 84.24 75.5 84.24ZM38 38.4067V30.0733H75.5V38.4067H38ZM38 50.9067V42.5733H75.5V50.9067H38ZM25.5 84.24H63V75.9067H21.3333V80.0733C21.3333 81.2539 21.7326 82.2435 22.5312 83.0421C23.3299 83.8407 24.3194 84.24 25.5 84.24ZM25.5 84.24H21.3333H63H25.5Z" fill="#FAFAFA"/>
</svg>
