<svg width="100" height="101" viewBox="0 0 100 101" fill="none" xmlns="http://www.w3.org/2000/svg">
<path d="M28 84.0444L13 69.0444L28 54.0444L33.25 59.2944L27.25 65.2944H73.75L67.75 59.2944L73 54.0444L88 69.0444L73 84.0444L67.75 78.7944L73.75 72.7944H27.25L33.25 78.7944L28 84.0444ZM13 46.5444V44.3882C13 42.8882 13.4062 41.5132 14.2188 40.2632C15.0312 39.0132 16.1562 38.0757 17.5938 37.4507C19.2188 36.7632 20.8906 36.2319 22.6094 35.8569C24.3281 35.4819 26.125 35.2944 28 35.2944C29.875 35.2944 31.6719 35.4819 33.3906 35.8569C35.1094 36.2319 36.7812 36.7632 38.4062 37.4507C39.8438 38.0757 40.9688 39.0132 41.7812 40.2632C42.5938 41.5132 43 42.8882 43 44.3882V46.5444H13ZM58 46.5444V44.3882C58 42.8882 58.4062 41.5132 59.2188 40.2632C60.0312 39.0132 61.1562 38.0757 62.5938 37.4507C64.2188 36.7632 65.8906 36.2319 67.6094 35.8569C69.3281 35.4819 71.125 35.2944 73 35.2944C74.875 35.2944 76.6719 35.4819 78.3906 35.8569C80.1094 36.2319 81.7812 36.7632 83.4062 37.4507C84.8438 38.0757 85.9688 39.0132 86.7812 40.2632C87.5938 41.5132 88 42.8882 88 44.3882V46.5444H58ZM28 31.5444C25.9375 31.5444 24.1719 30.8101 22.7031 29.3413C21.2344 27.8726 20.5 26.1069 20.5 24.0444C20.5 21.9819 21.2344 20.2163 22.7031 18.7476C24.1719 17.2788 25.9375 16.5444 28 16.5444C30.0625 16.5444 31.8281 17.2788 33.2969 18.7476C34.7656 20.2163 35.5 21.9819 35.5 24.0444C35.5 26.1069 34.7656 27.8726 33.2969 29.3413C31.8281 30.8101 30.0625 31.5444 28 31.5444ZM73 31.5444C70.9375 31.5444 69.1719 30.8101 67.7031 29.3413C66.2344 27.8726 65.5 26.1069 65.5 24.0444C65.5 21.9819 66.2344 20.2163 67.7031 18.7476C69.1719 17.2788 70.9375 16.5444 73 16.5444C75.0625 16.5444 76.8281 17.2788 78.2969 18.7476C79.7656 20.2163 80.5 21.9819 80.5 24.0444C80.5 26.1069 79.7656 27.8726 78.2969 29.3413C76.8281 30.8101 75.0625 31.5444 73 31.5444Z" fill="#E8EAED"/>
</svg>
