<svg width="190" height="55" viewBox="0 0 190 55" fill="none" xmlns="http://www.w3.org/2000/svg">
<path d="M8.68766 0.966787C7.01028 1.08247 5.66838 1.55676 4.17609 2.55162C2.92674 3.38453 2.3946 3.99763 1.5617 5.55933C0.532134 7.47964 0.532134 9.86268 1.53856 11.8755C2.09383 12.9861 3.36632 14.5362 4.34961 15.2997C5.8072 16.4334 7.57712 17.7059 9.49743 19.0015C10.1221 19.4295 11.3483 20.4128 11.3483 20.4938C11.3483 20.5285 11.6722 20.8177 12.0771 21.13C13.6157 22.3563 14.2288 23.2354 14.4833 24.6236C14.6799 25.6532 14.5296 26.7406 14.0553 27.7701C13.5347 28.9154 12.9794 29.621 12.1118 30.2573C11.1748 30.9398 10.1799 31.3215 8.66452 31.5529C6.98715 31.819 5.06684 31.6455 3.88689 31.1249C3.75964 31.067 3.52828 31.0092 3.36632 30.9861C2.84576 30.9398 2.11697 30.6853 1.87404 30.4771C1.73522 30.373 1.52699 29.9334 1.38817 29.4706C1.26093 29.0195 1.0527 28.3254 0.92545 27.909C0.7982 27.4925 0.613111 26.891 0.520566 26.567C0.428021 26.2316 0.277635 25.792 0.173522 25.5838L0 25.1904L0.0578406 25.7688C0.092545 26.0812 0.150386 27.6197 0.18509 29.1814C0.231362 30.7431 0.277635 32.1197 0.300771 32.247C0.347044 32.4668 0.439589 32.4784 1.94344 32.4668C2.82262 32.4552 4.73136 32.5362 6.17738 32.6287C8.80334 32.8138 8.83805 32.8138 10.3188 32.5593C11.1285 32.4205 11.9846 32.2123 12.2159 32.1082C12.5167 31.9578 12.6555 31.9462 12.7596 32.0503C12.8522 32.1429 12.7596 32.3742 12.401 32.9411C12.1465 33.3575 11.9267 33.774 11.9267 33.8665C11.9267 33.9591 11.8805 34.0516 11.8226 34.0863C11.6722 34.1789 11.0129 35.81 10.8162 36.5735C10.7237 36.9205 10.5964 37.2444 10.527 37.2791C10.3535 37.3948 10.2841 41.1197 10.4229 42.3691C10.6427 44.2316 11.3483 46.1866 12.401 47.8524C13.1992 49.1133 14.8882 50.8485 16.1375 51.6814C16.8779 52.1789 18.5784 53.0002 19.5386 53.3126C21.4589 53.9488 23.009 54.1686 25.4961 54.1686C26.919 54.1686 27.8792 54.1223 28.0296 54.0413C28.1684 53.9604 29.1748 53.9141 30.7365 53.9141L33.2005 53.9257L33.536 53.3241C33.7211 52.9886 34.2879 51.9938 34.7853 51.103C35.2828 50.2123 35.7224 49.4372 35.7455 49.3794C35.7686 49.3216 35.3638 49.7033 34.8548 50.2123C32.946 52.121 30.6208 52.9771 27.2545 53.0002C22.3033 53.0349 18.0116 50.4668 15.8599 46.1866C15.374 45.2149 15.0964 44.4167 14.7956 43.0632C14.4486 41.5131 14.4486 38.5285 14.7956 36.8742C15.3509 34.2367 16.2532 32.4552 17.8612 30.8126C18.6247 30.0259 20.1054 28.9848 20.5913 28.8807C20.7532 28.846 21.2159 28.6956 21.6208 28.5336C22.4422 28.2097 22.0951 28.3398 22.0951 28.3398C22.0951 28.3398 22.7082 28.2444 22.9396 28.094C23.2519 27.8974 24.5129 27.6429 24.6864 27.7586C24.7905 27.8164 24.7558 30.72 24.5938 34.4449C24.455 37.5452 24.3856 39.1069 24.3625 39.3614C24.3393 39.5233 24.2931 40.5298 24.2468 41.6172C24.2005 42.693 24.0578 43.8728 24 44C24 44 24 44 24.027 45.7239L23.8997 46.8113L23.3792 46.9154C22.8702 46.9964 21.6208 47.274 19.9666 47.6557C19.527 47.7599 19.1105 47.8871 19.0527 47.9449C18.9833 47.9912 24.5707 48.0375 31.4422 48.0375C38.3252 48.0375 43.982 47.9912 44.0167 47.9449C44.0514 47.8871 44.1324 47.0195 44.2018 46.0015C44.3175 44.22 44.5141 41.9295 44.7918 39.3036C44.8612 38.5979 44.9422 37.6956 44.9653 37.2791L45 36.5272L44.8149 36.9321C44.7224 37.1519 44.5488 37.7534 44.4332 38.2624C44.3175 38.7714 44.1671 39.4192 44.0977 39.7084C43.6003 41.6172 43.1028 43.5953 42.9409 44.301C42.8368 44.7637 42.6979 45.1917 42.617 45.2727C42.455 45.4347 40.4306 45.909 39.2159 46.0709C36.1272 46.4527 32.4833 45.9437 29.8342 44.7521C29.2095 44.4745 29.1748 44.4398 29.117 43.9655C28.9897 43.0748 28.8162 35.9372 28.8162 31.7496V27.6776H29.2095C29.7416 27.6776 31.338 27.8974 31.7661 28.0246C31.9627 28.0825 32.5643 28.1982 33.1195 28.2676C33.6748 28.337 34.2069 28.4527 34.3111 28.5336C34.4152 28.603 34.6234 29.1583 34.7738 29.7599C35.144 31.2637 35.5026 32.4437 35.6183 32.5593C35.7108 32.6519 35.6877 28.8807 35.572 27.4578L35.5026 26.6133L33.617 26.6943C32.5758 26.7406 31.0604 26.7406 30.2622 26.6943L28.8046 26.6133L28.874 19.3023C28.9087 15.2881 28.9897 11.0889 29.0476 9.97836C29.0938 8.86782 29.2095 6.72771 29.2789 5.23543C29.3715 3.53491 29.4756 2.47065 29.5566 2.38967C29.626 2.32026 30.054 2.20458 30.4936 2.1236C30.9447 2.04262 31.6157 1.91537 31.9974 1.82283C32.3792 1.74185 33.1542 1.5799 33.7095 1.47579C34.2648 1.3601 34.6928 1.24442 34.6697 1.20972C34.5656 1.1056 19.0064 1.04777 18.9486 1.15188C18.8676 1.27913 19.527 1.46422 20.892 1.69558C21.4704 1.79969 22.4306 1.97321 23.0321 2.0889L24.1311 2.29712L24.2121 2.77142C24.2931 3.24571 24.4666 6.8781 24.6285 11.3087C24.6748 12.639 24.7095 16.5953 24.7095 20.1005V26.4629L23.2635 26.5323C21.8522 26.6018 21.3663 26.6712 20.892 26.8678C20.7648 26.9141 20.2674 27.076 19.7931 27.2264C19.3188 27.3652 18.6247 27.6313 18.2429 27.8164C17.7455 28.0709 17.5373 28.1287 17.4447 28.0362C17.3406 27.9321 17.3522 27.8395 17.4679 27.6545C17.5488 27.5156 17.7571 27.0413 17.9075 26.5902C18.1504 25.8961 18.2082 25.4912 18.2545 24.0568C18.3008 22.8652 18.2776 22.2984 18.1851 22.2059C18.1157 22.1365 18.0578 21.9745 18.0578 21.8588C18.0578 21.3498 16.8548 19.4642 15.8483 18.4115C15.2468 17.7868 13.6041 16.4681 12.5051 15.7508C11.9614 15.3922 10.5039 14.4205 9.26607 13.6107C6.62853 11.864 5.14782 10.5221 4.56941 9.34211C4.25707 8.68273 4.23393 8.56705 4.23393 7.20201C4.23393 5.77913 4.2455 5.74442 4.61568 5.05034C5.19409 3.98607 6.01542 3.22257 7.24165 2.62103C8.13239 2.18144 8.44473 2.0889 9.43959 1.98478C11.2211 1.79969 12.8753 2.01949 14.8188 2.71357L15.9062 3.10689L16.0681 3.62746C16.2763 4.34468 16.7738 6.20715 16.9589 6.97064C17.3175 8.52077 17.3638 8.26628 17.2943 4.7727C17.2596 2.89867 17.2134 1.30226 17.1902 1.23285C17.1671 1.14031 16.8201 1.11717 16.0797 1.16345C15.5013 1.19815 14.356 1.16345 13.5578 1.08247C11.7185 0.908949 10.099 0.874242 8.68766 0.966787ZM10.8509 1.34853C10.8278 1.41794 10.446 1.51049 10.0064 1.55676C7.49614 1.78813 5.89974 2.45908 4.51157 3.83568C2.82262 5.52463 2.20951 7.51435 2.78792 9.41152C3.13496 10.5799 3.62082 11.4591 4.38432 12.292C5.34447 13.3563 6.07327 13.9115 10.1337 16.6763C13.7545 19.1287 15.2121 20.3781 15.6632 21.4308C15.7789 21.72 16.045 22.2868 16.2416 22.7033C16.5887 23.4321 16.6003 23.5015 16.6003 25.1442L16.6118 26.8215L16.1028 27.8627C15.5244 29.0311 15.2005 29.4475 14.1941 30.3151C13.4422 30.9629 11.7532 31.8537 10.8625 32.0619C10.5733 32.1313 9.72879 32.2239 8.98843 32.2586C7.77378 32.328 7.64653 32.3164 7.64653 32.1429C7.64653 32.0041 7.73907 31.9578 8.02828 31.9578C9.52057 31.9809 11.8226 31.0208 13.072 29.8408C14.0437 28.9154 14.8303 27.319 14.9923 26.0002C15.0733 25.2367 14.8882 23.9064 14.6337 23.409C14.5411 23.247 14.4717 23.0503 14.4717 22.9809C14.4717 22.9 14.2635 22.5298 14.009 22.148C13.3728 21.1994 12.054 20.1352 8.57198 17.7753C5.88817 15.9706 4.76607 15.0915 3.65553 13.9694C1.09897 11.3781 0.520566 8.56705 1.93188 5.61717C2.47558 4.4835 3.26221 3.55805 4.32648 2.82926C5.86504 1.76499 7.20694 1.31383 9.20823 1.19815C10.5964 1.11718 10.9203 1.15188 10.8509 1.34853ZM26.7686 2.10047C26.838 2.11203 26.8149 21.3267 26.7455 21.8357C26.7339 21.8935 26.7686 22.9809 26.8033 24.2303L26.8843 26.5208H26.0167H25.1375L25.126 14.3511C25.1144 6.92437 25.1491 2.15831 25.2185 2.1236C25.2995 2.06576 26.1324 2.06576 26.7686 2.10047ZM24.7442 26.9951C24.7905 27.2496 24.617 27.3074 23.3213 27.4C22.2108 27.4809 22.1992 27.4809 22.3265 27.238C22.5694 26.7868 24.6632 26.5786 24.7442 26.9951ZM26.8496 26.9257C26.8496 27.0529 26.6877 27.0992 26.1555 27.1108C25.7738 27.1223 25.392 27.1339 25.3226 27.1455C25.2416 27.157 25.1607 27.0645 25.1375 26.9488C25.1028 26.7753 25.2069 26.7521 25.9704 26.7521C26.6761 26.7521 26.8496 26.7868 26.8496 26.9257ZM21.8406 27.1686L22.0951 27.238L21.8406 27.4925C21.7018 27.6313 21.1465 27.9205 20.6028 28.1403C15.6632 30.1069 12.5977 34.7804 12.5977 40.3563C12.5977 42.7971 12.9216 44.2316 13.8933 46.1866C15.6517 49.6917 18.4974 51.855 22.8239 52.9655C23.6452 53.1737 24.7095 53.3126 26.5026 53.4398C27.4627 53.5092 27.7172 53.5671 27.7172 53.7059C27.7172 53.8447 27.4396 53.891 26.0977 53.9141C25.2069 53.9372 24.1311 53.891 23.7031 53.8216C23.2635 53.7521 22.5694 53.648 22.1414 53.5786C20.4177 53.3126 18.1272 52.4102 16.6465 51.4269C15.2815 50.5131 13.5463 48.7431 12.7712 47.4591C12.3201 46.7303 11.7301 45.4578 11.4871 44.6827C10.8393 42.7162 10.6889 39.9629 11.117 38.2624C11.2442 37.765 11.3483 37.2213 11.3483 37.0593C11.3483 36.2149 12.482 33.5426 13.2686 32.5131C13.4537 32.2817 13.7314 31.9 13.8933 31.6686C14.0553 31.4488 14.4486 31.067 14.7609 30.8357C15.0848 30.6043 15.7095 30.0722 16.1491 29.6557C17.2481 28.6262 18.6825 27.9321 21.0656 27.238C21.5861 27.0876 21.5514 27.0876 21.8406 27.1686ZM26.7918 34.4449C26.7802 38.193 26.7686 41.8138 26.7455 42.4732C26.6992 43.5722 26.7455 43.9102 26.7455 43.9102C26.7455 43.8407 26.7918 43.9796 26.7455 43.9102C26.7577 43.9261 26.7918 43.9424 26.8265 45.4694L26.8612 46.9964H25.982H25.1028L25.1375 45.5156L25.1722 44.0465L25.1954 44.0218V43.873V43.3177C25.1722 43.0169 25.1375 39.3845 25.126 35.2316L25.1028 27.6892L25.6581 27.6429C25.9704 27.6197 26.3406 27.6082 26.5026 27.6082L26.7918 27.6197V34.4449Z" fill="white"/>
<path d="M72.5453 36H69.8093C69.0093 35.104 68.2493 34.224 67.5293 33.36C66.8253 32.48 66.1693 31.608 65.5613 30.744C64.9693 29.88 64.4573 29.032 64.0253 28.2C63.5933 27.368 63.2573 26.544 63.0173 25.728C62.7773 24.896 62.6573 24.08 62.6573 23.28C62.6573 22.384 62.8253 21.6 63.1613 20.928C63.5133 20.24 63.9933 19.712 64.6013 19.344C65.2093 18.96 65.9293 18.768 66.7613 18.768C67.4173 18.768 67.9853 18.888 68.4653 19.128C68.9453 19.368 69.3213 19.712 69.5933 20.16C69.8653 20.592 70.0013 21.112 70.0013 21.72C70.0013 22.568 69.7613 23.312 69.2813 23.952C68.8013 24.576 68.1373 25.104 67.2893 25.536C66.4413 25.952 65.4813 26.28 64.4093 26.52L64.1453 25.776C65.1533 25.536 65.9933 25.248 66.6653 24.912C67.3373 24.56 67.8413 24.136 68.1773 23.64C68.5293 23.128 68.7053 22.496 68.7053 21.744C68.7053 21.344 68.6333 20.984 68.4893 20.664C68.3453 20.344 68.1213 20.104 67.8173 19.944C67.5293 19.768 67.1693 19.68 66.7373 19.68C66.1933 19.68 65.7133 19.824 65.2973 20.112C64.8813 20.4 64.5613 20.816 64.3373 21.36C64.1133 21.904 64.0013 22.552 64.0013 23.304C64.0013 23.896 64.0733 24.496 64.2173 25.104C64.3613 25.712 64.5773 26.344 64.8653 27C65.1693 27.656 65.5453 28.344 65.9933 29.064C66.4573 29.784 67.0013 30.544 67.6253 31.344C68.2653 32.144 68.9933 33.008 69.8093 33.936C70.0813 34.24 70.3373 34.472 70.5773 34.632C70.8173 34.792 71.0653 34.904 71.3213 34.968C71.5933 35.032 71.9053 35.064 72.2573 35.064H72.7133L72.5453 36ZM63.4493 35.232C64.2813 35.232 65.0413 35.064 65.7293 34.728C66.4333 34.376 67.0573 33.928 67.6013 33.384C68.1613 32.824 68.6413 32.208 69.0413 31.536C69.4573 30.848 69.7853 30.168 70.0253 29.496C70.2813 28.808 70.4573 28.168 70.5533 27.576C70.5533 27.528 70.4573 27.488 70.2653 27.456C70.0733 27.424 69.8413 27.4 69.5693 27.384C69.3133 27.368 69.0733 27.36 68.8493 27.36H68.8013L68.9213 26.544H73.6733L73.5533 27.36H73.5053C72.9773 27.36 72.5373 27.416 72.1853 27.528C71.8493 27.64 71.6013 27.912 71.4413 28.344C71.2653 28.824 71.0333 29.4 70.7453 30.072C70.4573 30.744 70.0893 31.432 69.6413 32.136C69.2093 32.84 68.6893 33.496 68.0813 34.104C67.4893 34.696 66.8013 35.184 66.0173 35.568C65.2333 35.936 64.3453 36.12 63.3533 36.12C62.2813 36.12 61.3533 35.92 60.5693 35.52C59.8013 35.12 59.2093 34.56 58.7933 33.84C58.3773 33.12 58.1693 32.288 58.1693 31.344C58.1693 30.544 58.3133 29.84 58.6013 29.232C58.8893 28.624 59.2813 28.104 59.7773 27.672C60.2733 27.224 60.8573 26.856 61.5293 26.568C62.2173 26.264 62.9533 26.024 63.7373 25.848L63.9293 26.592C63.0653 26.832 62.3053 27.152 61.6493 27.552C60.9933 27.952 60.4813 28.464 60.1133 29.088C59.7613 29.696 59.5853 30.472 59.5853 31.416C59.5853 32.184 59.7373 32.856 60.0413 33.432C60.3453 34.008 60.7853 34.456 61.3613 34.776C61.9373 35.08 62.6333 35.232 63.4493 35.232ZM84.4243 28.848H91.3603L91.2643 29.736H84.1603L84.4243 28.848ZM89.4163 19.632H89.6563L82.0003 34.728C81.9843 34.808 82.0723 34.888 82.2643 34.968C82.4723 35.032 82.7283 35.08 83.0323 35.112C83.3363 35.144 83.6403 35.16 83.9443 35.16H84.3043L84.1363 36H79.0003L79.1683 35.16H79.2883C79.7203 35.16 80.0723 35.104 80.3443 34.992C80.6323 34.88 80.8883 34.608 81.1123 34.176L88.8883 18.96H90.6163L93.1603 34.44C93.2083 34.776 93.3523 34.984 93.5923 35.064C93.8483 35.128 94.1843 35.16 94.6003 35.16H94.7203L94.5523 36H89.1763L89.3443 35.16H89.7523C90.0563 35.16 90.3683 35.152 90.6883 35.136C91.0083 35.12 91.2803 35.096 91.5043 35.064C91.7283 35.016 91.8403 34.968 91.8403 34.92L89.4163 19.632ZM100.941 36.264C100.189 36.264 99.5087 36.176 98.9007 36C98.3087 35.84 97.7887 35.632 97.3407 35.376C96.9087 35.12 96.5487 34.848 96.2607 34.56L96.6207 32.52H98.0847L97.6287 35.136C97.4687 35.008 97.3407 34.864 97.2447 34.704C97.1647 34.528 97.1167 34.352 97.1007 34.176C97.0847 34 97.1007 33.848 97.1487 33.72C97.4367 34.072 97.7727 34.368 98.1567 34.608C98.5407 34.848 98.9647 35.032 99.4287 35.16C99.9087 35.288 100.437 35.352 101.013 35.352C101.653 35.352 102.205 35.256 102.669 35.064C103.133 34.872 103.485 34.592 103.725 34.224C103.981 33.84 104.109 33.384 104.109 32.856C104.109 32.52 104.021 32.224 103.845 31.968C103.685 31.696 103.461 31.464 103.173 31.272C102.885 31.08 102.557 30.896 102.189 30.72C101.837 30.544 101.477 30.368 101.109 30.192C100.597 29.952 100.109 29.696 99.6447 29.424C99.1967 29.152 98.8287 28.816 98.5407 28.416C98.2687 28.016 98.1327 27.496 98.1327 26.856C98.1327 26.168 98.3087 25.576 98.6607 25.08C99.0287 24.584 99.5247 24.208 100.149 23.952C100.789 23.696 101.517 23.568 102.333 23.568C103.021 23.568 103.613 23.64 104.109 23.784C104.605 23.912 105.013 24.072 105.333 24.264C105.653 24.456 105.885 24.64 106.029 24.816L105.669 26.76H104.229L104.589 24.792C104.685 24.84 104.781 24.928 104.877 25.056C104.989 25.168 105.069 25.296 105.117 25.44C105.181 25.568 105.181 25.712 105.117 25.872C105.005 25.584 104.813 25.336 104.541 25.128C104.285 24.92 103.965 24.76 103.581 24.648C103.213 24.536 102.789 24.48 102.309 24.48C101.381 24.48 100.669 24.68 100.173 25.08C99.6767 25.48 99.4287 26.024 99.4287 26.712C99.4287 27.176 99.5487 27.552 99.7887 27.84C100.029 28.128 100.349 28.376 100.749 28.584C101.149 28.792 101.605 29.024 102.117 29.28C102.645 29.52 103.157 29.784 103.653 30.072C104.165 30.344 104.589 30.688 104.925 31.104C105.261 31.52 105.429 32.072 105.429 32.76C105.429 33.464 105.245 34.08 104.877 34.608C104.509 35.136 103.989 35.544 103.317 35.832C102.661 36.12 101.869 36.264 100.941 36.264ZM117.002 31.992C117.13 31.672 117.234 31.344 117.314 31.008C117.394 30.672 117.45 30.336 117.482 30C117.53 29.648 117.554 29.312 117.554 28.992C117.554 28.096 117.41 27.312 117.122 26.64C116.834 25.968 116.426 25.44 115.898 25.056C115.37 24.672 114.73 24.48 113.978 24.48C113.466 24.48 112.986 24.568 112.538 24.744C112.09 24.92 111.69 25.16 111.338 25.464C110.986 25.768 110.674 26.128 110.402 26.544C110.13 26.944 109.906 27.384 109.73 27.864C109.602 28.168 109.49 28.496 109.394 28.848C109.314 29.184 109.25 29.52 109.202 29.856C109.17 30.192 109.154 30.528 109.154 30.864C109.154 31.744 109.298 32.528 109.586 33.216C109.874 33.888 110.282 34.416 110.81 34.8C111.354 35.184 111.994 35.376 112.73 35.376C113.258 35.376 113.738 35.288 114.17 35.112C114.618 34.936 115.018 34.696 115.37 34.392C115.738 34.072 116.05 33.712 116.306 33.312C116.578 32.896 116.81 32.456 117.002 31.992ZM107.714 30.744C107.714 29.976 107.81 29.232 108.002 28.512C108.21 27.792 108.498 27.136 108.866 26.544C109.25 25.936 109.698 25.408 110.21 24.96C110.738 24.512 111.314 24.168 111.938 23.928C112.578 23.688 113.258 23.568 113.978 23.568C114.97 23.568 115.834 23.808 116.57 24.288C117.322 24.768 117.914 25.424 118.346 26.256C118.778 27.088 118.994 28.04 118.994 29.112C118.994 29.896 118.89 30.648 118.682 31.368C118.49 32.072 118.202 32.728 117.818 33.336C117.45 33.928 117.01 34.448 116.498 34.896C115.986 35.344 115.41 35.688 114.77 35.928C114.13 36.168 113.45 36.288 112.73 36.288C111.77 36.288 110.906 36.048 110.138 35.568C109.386 35.088 108.794 34.432 108.362 33.6C107.93 32.752 107.714 31.8 107.714 30.744ZM126.141 35.352C126.845 35.352 127.445 35.216 127.941 34.944C128.437 34.672 128.853 34.328 129.189 33.912C129.541 33.48 129.829 33.04 130.053 32.592L130.821 33.144C130.501 33.8 130.109 34.368 129.645 34.848C129.197 35.312 128.677 35.672 128.085 35.928C127.493 36.168 126.829 36.288 126.093 36.288C125.357 36.288 124.677 36.16 124.053 35.904C123.429 35.648 122.885 35.28 122.421 34.8C121.957 34.32 121.597 33.744 121.341 33.072C121.085 32.384 120.957 31.616 120.957 30.768C120.957 29.792 121.117 28.872 121.437 28.008C121.757 27.128 122.213 26.36 122.805 25.704C123.413 25.032 124.117 24.512 124.917 24.144C125.733 23.76 126.629 23.568 127.605 23.568C128.357 23.568 128.997 23.656 129.525 23.832C130.053 24.008 130.485 24.208 130.821 24.432C131.157 24.656 131.389 24.856 131.517 25.032L131.109 27.264H129.669L130.053 25.08C130.261 25.144 130.413 25.224 130.509 25.32C130.621 25.4 130.693 25.488 130.725 25.584C130.773 25.68 130.789 25.784 130.773 25.896C130.773 25.992 130.749 26.088 130.701 26.184C130.573 25.864 130.365 25.576 130.077 25.32C129.805 25.064 129.461 24.864 129.045 24.72C128.629 24.56 128.141 24.48 127.581 24.48C126.957 24.48 126.373 24.592 125.829 24.816C125.301 25.04 124.821 25.352 124.389 25.752C123.973 26.152 123.613 26.624 123.309 27.168C123.021 27.696 122.797 28.28 122.637 28.92C122.477 29.544 122.397 30.2 122.397 30.888C122.397 31.784 122.541 32.576 122.829 33.264C123.133 33.936 123.565 34.456 124.125 34.824C124.685 35.176 125.357 35.352 126.141 35.352ZM133.941 34.488C133.941 34.248 133.957 33.976 133.989 33.672C134.037 33.352 134.093 33 134.157 32.616C134.237 32.216 134.317 31.784 134.397 31.32L135.381 25.704C135.429 25.448 135.397 25.256 135.285 25.128C135.173 25 134.989 24.904 134.733 24.84C134.477 24.76 134.157 24.68 133.773 24.6L133.485 24.552L133.653 23.808H137.061L135.669 31.752C135.605 32.088 135.541 32.432 135.477 32.784C135.429 33.12 135.381 33.432 135.333 33.72C135.301 33.992 135.285 34.224 135.285 34.416C135.285 34.688 135.357 34.896 135.501 35.04C135.661 35.168 135.869 35.232 136.125 35.232C136.381 35.232 136.621 35.2 136.845 35.136C137.069 35.056 137.269 34.984 137.445 34.92C137.621 34.84 137.741 34.792 137.805 34.776L137.661 35.616C137.533 35.696 137.373 35.784 137.181 35.88C136.989 35.96 136.781 36.024 136.557 36.072C136.333 36.136 136.093 36.168 135.837 36.168C135.469 36.168 135.141 36.112 134.853 36C134.581 35.888 134.357 35.704 134.181 35.448C134.021 35.192 133.941 34.872 133.941 34.488ZM135.693 19.368C135.693 19 135.797 18.72 136.005 18.528C136.229 18.336 136.501 18.24 136.821 18.24C137.141 18.24 137.405 18.336 137.613 18.528C137.837 18.72 137.949 19 137.949 19.368C137.949 19.704 137.837 19.976 137.613 20.184C137.405 20.376 137.141 20.472 136.821 20.472C136.501 20.472 136.229 20.376 136.005 20.184C135.797 19.976 135.693 19.704 135.693 19.368ZM149.812 26.904L149.164 27.84C149.084 27.12 148.9 26.52 148.612 26.04C148.34 25.544 147.98 25.16 147.532 24.888C147.084 24.616 146.588 24.48 146.044 24.48C145.452 24.48 144.9 24.624 144.388 24.912C143.876 25.184 143.412 25.56 142.996 26.04C142.596 26.52 142.252 27.072 141.964 27.696C141.692 28.32 141.476 28.984 141.316 29.688C141.172 30.376 141.1 31.064 141.1 31.752C141.1 32.504 141.188 33.152 141.364 33.696C141.54 34.224 141.796 34.632 142.132 34.92C142.468 35.208 142.876 35.352 143.356 35.352C144.012 35.352 144.62 35.144 145.18 34.728C145.74 34.296 146.284 33.704 146.812 32.952C147.34 32.2 147.868 31.328 148.396 30.336L148.684 31.056C148.156 32.128 147.612 33.056 147.052 33.84C146.508 34.608 145.924 35.208 145.3 35.64C144.676 36.056 143.972 36.264 143.188 36.264C142.452 36.264 141.82 36.088 141.292 35.736C140.764 35.368 140.356 34.84 140.068 34.152C139.796 33.464 139.66 32.648 139.66 31.704C139.66 30.888 139.756 30.096 139.948 29.328C140.156 28.544 140.444 27.808 140.812 27.12C141.196 26.416 141.652 25.8 142.18 25.272C142.708 24.744 143.3 24.328 143.956 24.024C144.612 23.72 145.308 23.568 146.044 23.568C146.716 23.568 147.308 23.704 147.82 23.976C148.348 24.232 148.78 24.608 149.116 25.104C149.468 25.6 149.7 26.2 149.812 26.904ZM150.652 23.784L149.116 32.52C149.084 32.776 149.044 33.024 148.996 33.264C148.964 33.488 148.932 33.704 148.9 33.912C148.884 34.12 148.876 34.304 148.876 34.464C148.876 34.72 148.948 34.912 149.092 35.04C149.236 35.168 149.436 35.232 149.692 35.232C150.092 35.232 150.444 35.16 150.748 35.016C151.068 34.872 151.284 34.792 151.396 34.776L151.228 35.616C151.116 35.696 150.964 35.784 150.772 35.88C150.58 35.96 150.364 36.024 150.124 36.072C149.9 36.136 149.668 36.168 149.428 36.168C149.076 36.168 148.764 36.112 148.492 36C148.22 35.872 148.004 35.68 147.844 35.424C147.684 35.168 147.604 34.848 147.604 34.464C147.604 34.176 147.636 33.808 147.7 33.36C147.764 32.896 147.844 32.448 147.94 32.016L147.844 32.184L148.924 26.04L149.02 25.824L149.836 23.784H150.652ZM156.716 36.264C155.884 36.264 155.188 36.064 154.628 35.664C154.084 35.264 153.668 34.712 153.38 34.008C153.108 33.288 152.972 32.456 152.972 31.512C152.972 30.664 153.076 29.848 153.284 29.064C153.492 28.28 153.788 27.56 154.172 26.904C154.556 26.232 155.02 25.648 155.564 25.152C156.124 24.64 156.74 24.248 157.412 23.976C158.1 23.704 158.844 23.568 159.644 23.568C160.316 23.568 160.932 23.688 161.492 23.928C162.052 24.168 162.524 24.52 162.908 24.984C163.308 25.448 163.596 26.008 163.772 26.664L163.028 27.624C162.932 26.952 162.724 26.384 162.404 25.92C162.084 25.44 161.684 25.08 161.204 24.84C160.74 24.6 160.212 24.48 159.62 24.48C158.98 24.48 158.388 24.608 157.844 24.864C157.3 25.12 156.812 25.472 156.38 25.92C155.964 26.352 155.604 26.872 155.3 27.48C155.012 28.072 154.788 28.72 154.628 29.424C154.484 30.112 154.412 30.824 154.412 31.56C154.412 32.296 154.492 32.952 154.652 33.528C154.828 34.088 155.1 34.536 155.468 34.872C155.836 35.192 156.3 35.352 156.86 35.352C157.372 35.352 157.852 35.232 158.3 34.992C158.764 34.752 159.212 34.416 159.644 33.984C160.076 33.536 160.5 33.008 160.916 32.4C161.332 31.776 161.74 31.088 162.14 30.336L162.452 31.056C161.908 32.128 161.34 33.056 160.748 33.84C160.172 34.624 159.556 35.224 158.9 35.64C158.244 36.056 157.516 36.264 156.716 36.264ZM163.196 36.168C162.668 36.168 162.228 36.032 161.876 35.76C161.54 35.472 161.372 35.04 161.372 34.464C161.372 34.272 161.388 34.04 161.42 33.768C161.452 33.496 161.492 33.216 161.54 32.928C161.588 32.64 161.644 32.368 161.708 32.112L161.612 32.16L163.676 20.232C163.724 19.992 163.692 19.816 163.58 19.704C163.468 19.576 163.284 19.472 163.028 19.392C162.788 19.312 162.476 19.232 162.092 19.152L161.828 19.104L161.972 18.36H165.356L162.884 32.496C162.852 32.752 162.812 33 162.764 33.24C162.732 33.48 162.7 33.704 162.668 33.912C162.652 34.104 162.644 34.288 162.644 34.464C162.644 34.72 162.716 34.912 162.86 35.04C163.004 35.168 163.204 35.232 163.46 35.232C163.86 35.232 164.212 35.16 164.516 35.016C164.836 34.872 165.052 34.792 165.164 34.776L164.996 35.616C164.884 35.696 164.732 35.784 164.54 35.88C164.348 35.96 164.132 36.024 163.892 36.072C163.668 36.136 163.436 36.168 163.196 36.168ZM176.112 31.992C176.24 31.672 176.344 31.344 176.424 31.008C176.504 30.672 176.56 30.336 176.592 30C176.64 29.648 176.664 29.312 176.664 28.992C176.664 28.096 176.52 27.312 176.232 26.64C175.944 25.968 175.536 25.44 175.008 25.056C174.48 24.672 173.84 24.48 173.088 24.48C172.576 24.48 172.096 24.568 171.648 24.744C171.2 24.92 170.8 25.16 170.448 25.464C170.096 25.768 169.784 26.128 169.512 26.544C169.24 26.944 169.016 27.384 168.84 27.864C168.712 28.168 168.6 28.496 168.504 28.848C168.424 29.184 168.36 29.52 168.312 29.856C168.28 30.192 168.264 30.528 168.264 30.864C168.264 31.744 168.408 32.528 168.696 33.216C168.984 33.888 169.392 34.416 169.92 34.8C170.464 35.184 171.104 35.376 171.84 35.376C172.368 35.376 172.848 35.288 173.28 35.112C173.728 34.936 174.128 34.696 174.48 34.392C174.848 34.072 175.16 33.712 175.416 33.312C175.688 32.896 175.92 32.456 176.112 31.992ZM166.824 30.744C166.824 29.976 166.92 29.232 167.112 28.512C167.32 27.792 167.608 27.136 167.976 26.544C168.36 25.936 168.808 25.408 169.32 24.96C169.848 24.512 170.424 24.168 171.048 23.928C171.688 23.688 172.368 23.568 173.088 23.568C174.08 23.568 174.944 23.808 175.68 24.288C176.432 24.768 177.024 25.424 177.456 26.256C177.888 27.088 178.104 28.04 178.104 29.112C178.104 29.896 178 30.648 177.792 31.368C177.6 32.072 177.312 32.728 176.928 33.336C176.56 33.928 176.12 34.448 175.608 34.896C175.096 35.344 174.52 35.688 173.88 35.928C173.24 36.168 172.56 36.288 171.84 36.288C170.88 36.288 170.016 36.048 169.248 35.568C168.496 35.088 167.904 34.432 167.472 33.6C167.04 32.752 166.824 31.8 166.824 30.744ZM184.05 36.264C183.298 36.264 182.618 36.176 182.01 36C181.418 35.84 180.898 35.632 180.45 35.376C180.018 35.12 179.658 34.848 179.37 34.56L179.73 32.52H181.194L180.738 35.136C180.578 35.008 180.45 34.864 180.354 34.704C180.274 34.528 180.226 34.352 180.21 34.176C180.194 34 180.21 33.848 180.258 33.72C180.546 34.072 180.882 34.368 181.266 34.608C181.65 34.848 182.074 35.032 182.538 35.16C183.018 35.288 183.546 35.352 184.122 35.352C184.762 35.352 185.314 35.256 185.778 35.064C186.242 34.872 186.594 34.592 186.834 34.224C187.09 33.84 187.218 33.384 187.218 32.856C187.218 32.52 187.13 32.224 186.954 31.968C186.794 31.696 186.57 31.464 186.282 31.272C185.994 31.08 185.666 30.896 185.298 30.72C184.946 30.544 184.586 30.368 184.218 30.192C183.706 29.952 183.218 29.696 182.754 29.424C182.306 29.152 181.938 28.816 181.65 28.416C181.378 28.016 181.242 27.496 181.242 26.856C181.242 26.168 181.418 25.576 181.77 25.08C182.138 24.584 182.634 24.208 183.258 23.952C183.898 23.696 184.626 23.568 185.442 23.568C186.13 23.568 186.722 23.64 187.218 23.784C187.714 23.912 188.122 24.072 188.442 24.264C188.762 24.456 188.994 24.64 189.138 24.816L188.778 26.76H187.338L187.698 24.792C187.794 24.84 187.89 24.928 187.986 25.056C188.098 25.168 188.178 25.296 188.226 25.44C188.29 25.568 188.29 25.712 188.226 25.872C188.114 25.584 187.922 25.336 187.65 25.128C187.394 24.92 187.074 24.76 186.69 24.648C186.322 24.536 185.898 24.48 185.418 24.48C184.49 24.48 183.778 24.68 183.282 25.08C182.786 25.48 182.538 26.024 182.538 26.712C182.538 27.176 182.658 27.552 182.898 27.84C183.138 28.128 183.458 28.376 183.858 28.584C184.258 28.792 184.714 29.024 185.226 29.28C185.754 29.52 186.266 29.784 186.762 30.072C187.274 30.344 187.698 30.688 188.034 31.104C188.37 31.52 188.538 32.072 188.538 32.76C188.538 33.464 188.354 34.08 187.986 34.608C187.618 35.136 187.098 35.544 186.426 35.832C185.77 36.12 184.978 36.264 184.05 36.264Z" fill="white"/>
</svg>
