<svg width="30" height="30" viewBox="0 0 30 30" fill="none" xmlns="http://www.w3.org/2000/svg">
<path d="M5.00012 25C4.31262 25 3.72408 24.7552 3.2345 24.2656C2.74491 23.776 2.50012 23.1875 2.50012 22.5V7.5C2.50012 6.8125 2.74491 6.22396 3.2345 5.73438C3.72408 5.24479 4.31262 5 5.00012 5H25.0001C25.6876 5 26.2762 5.24479 26.7657 5.73438C27.2553 6.22396 27.5001 6.8125 27.5001 7.5V22.5C27.5001 23.1875 27.2553 23.776 26.7657 24.2656C26.2762 24.7552 25.6876 25 25.0001 25H5.00012ZM15.0001 16.25L5.00012 10V22.5H25.0001V10L15.0001 16.25ZM15.0001 13.75L25.0001 7.5H5.00012L15.0001 13.75ZM5.00012 10V7.5V22.5V10Z" fill="#2B2B2B"/>
</svg>
